<?xml version="1.0" encoding="UTF-8"?>
<svg xmlns="http://www.w3.org/2000/svg" xmlns:xlink="http://www.w3.org/1999/xlink" width="107pt" height="35pt" viewBox="0 0 107 35" version="1.2">
<defs>
<clipPath id="clip1">
  <path d="M 2.019531 2.53125 L 100.382812 2.53125 L 100.382812 34.667969 L 2.019531 34.667969 Z M 2.019531 2.53125 "/>
</clipPath>
<clipPath id="clip3">
  <path d="M 0.0195312 0.53125 L 98.382812 0.53125 L 98.382812 32.667969 L 0.0195312 32.667969 Z M 0.0195312 0.53125 "/>
</clipPath>
<clipPath id="clip2">
  <rect x="0" y="0" width="99" height="33"/>
</clipPath>
<g id="surface5" clip-path="url(#clip2)">
</g>
<clipPath id="clip4">
  <path d="M 2.019531 2.53125 L 36 2.53125 L 36 34.667969 L 2.019531 34.667969 Z M 2.019531 2.53125 "/>
</clipPath>
</defs>
<g id="surface1">
<rect x="0" y="0" width="107" height="35" style="fill:rgb(100%,100%,100%);fill-opacity:1;stroke:none;"/>
<g clip-path="url(#clip1)" clip-rule="nonzero">
<use xlink:href="#surface5" transform="matrix(1,0,0,1,2,2)"/>
<rect x="0" y="0" width="107" height="35" style="fill:rgb(100%,100%,100%);fill-opacity:1;stroke:none;"/>
<path style="fill:none;stroke-width:0.25;stroke-linecap:butt;stroke-linejoin:miter;stroke:rgb(13.729858%,12.159729%,12.548828%);stroke-opacity:1;stroke-miterlimit:10;" d="M 177.165708 133.112734 L 418.110765 133.112734 L 418.110765 288.515081 L 177.165708 288.515081 Z M 177.165708 133.112734 " transform="matrix(0.973883,0,0,-0.973883,-180.0973,275.2183)"/>
</g>
<path style=" stroke:none;fill-rule:nonzero;fill:rgb(13.729858%,12.159729%,12.548828%);fill-opacity:1;" d="M 35.519531 26.136719 C 35.507812 26.234375 35.554688 26.296875 35.652344 26.296875 L 36.101562 26.296875 C 36.15625 26.296875 36.21875 26.25 36.226562 26.199219 L 36.722656 23.113281 L 36.75 23.113281 L 38 26.289062 C 38.011719 26.332031 38.0625 26.367188 38.117188 26.367188 L 38.242188 26.367188 C 38.304688 26.367188 38.34375 26.332031 38.359375 26.289062 L 39.601562 23.113281 L 39.621094 23.113281 L 40.132812 26.199219 C 40.148438 26.25 40.203125 26.296875 40.265625 26.296875 L 40.710938 26.296875 C 40.808594 26.296875 40.859375 26.234375 40.835938 26.136719 L 39.988281 21.5 C 39.972656 21.445312 39.917969 21.394531 39.863281 21.394531 L 39.753906 21.394531 C 39.703125 21.394531 39.648438 21.429688 39.636719 21.472656 L 38.199219 25 L 38.171875 25 L 36.730469 21.472656 C 36.714844 21.429688 36.652344 21.394531 36.613281 21.394531 L 36.5 21.394531 C 36.445312 21.394531 36.390625 21.445312 36.378906 21.5 Z M 41.851562 26.164062 C 41.851562 26.234375 41.914062 26.296875 41.984375 26.296875 L 42.4375 26.296875 C 42.507812 26.296875 42.570312 26.234375 42.570312 26.164062 L 42.570312 21.59375 C 42.570312 21.527344 42.507812 21.464844 42.4375 21.464844 L 41.984375 21.464844 C 41.914062 21.464844 41.851562 21.527344 41.851562 21.59375 Z M 43.910156 26.164062 C 43.910156 26.234375 43.964844 26.296875 44.039062 26.296875 L 46.5 26.296875 C 46.574219 26.296875 46.628906 26.234375 46.628906 26.164062 L 46.628906 25.785156 C 46.628906 25.71875 46.574219 25.65625 46.5 25.65625 L 44.628906 25.65625 L 44.628906 21.59375 C 44.628906 21.527344 44.566406 21.464844 44.496094 21.464844 L 44.039062 21.464844 C 43.964844 21.464844 43.910156 21.527344 43.910156 21.59375 Z M 47.167969 26.296875 L 47.601562 26.296875 C 47.6875 26.296875 47.742188 26.242188 47.761719 26.195312 C 47.898438 25.875 48.046875 25.566406 48.183594 25.246094 L 50.441406 25.246094 L 50.867188 26.195312 C 50.898438 26.257812 50.945312 26.296875 51.027344 26.296875 L 51.460938 26.296875 C 51.566406 26.296875 51.621094 26.207031 51.582031 26.117188 L 49.472656 21.472656 C 49.453125 21.429688 49.390625 21.394531 49.355469 21.394531 L 49.289062 21.394531 C 49.253906 21.394531 49.191406 21.429688 49.171875 21.472656 L 47.050781 26.117188 C 47.007812 26.207031 47.066406 26.296875 47.167969 26.296875 M 48.453125 24.65625 L 49.292969 22.761719 L 49.328125 22.761719 L 50.179688 24.65625 Z M 52.269531 26.164062 C 52.269531 26.234375 52.332031 26.296875 52.402344 26.296875 L 52.835938 26.296875 C 52.914062 26.296875 52.96875 26.234375 52.96875 26.164062 L 52.96875 22.804688 L 52.976562 22.804688 L 55.96875 26.367188 L 56.152344 26.367188 C 56.21875 26.367188 56.28125 26.3125 56.28125 26.242188 L 56.28125 21.59375 C 56.28125 21.527344 56.21875 21.464844 56.152344 21.464844 L 55.707031 21.464844 C 55.632812 21.464844 55.578125 21.527344 55.578125 21.59375 L 55.578125 24.859375 L 55.570312 24.859375 L 52.574219 21.394531 L 52.402344 21.394531 C 52.332031 21.394531 52.269531 21.449219 52.269531 21.519531 Z M 57.269531 23.886719 C 57.269531 25.269531 58.367188 26.367188 59.746094 26.367188 C 61.128906 26.367188 62.234375 25.269531 62.234375 23.886719 C 62.234375 22.507812 61.128906 21.394531 59.746094 21.394531 C 58.367188 21.394531 57.269531 22.507812 57.269531 23.886719 M 57.960938 23.886719 C 57.960938 22.90625 58.769531 22.085938 59.746094 22.085938 C 60.734375 22.085938 61.542969 22.90625 61.542969 23.886719 C 61.542969 24.875 60.734375 25.675781 59.746094 25.675781 C 58.769531 25.675781 57.960938 24.875 57.960938 23.886719 M 64.25 26.296875 L 66.652344 26.296875 C 66.726562 26.296875 66.785156 26.242188 66.785156 26.171875 L 66.785156 25.875 C 66.785156 25.800781 66.726562 25.746094 66.652344 25.746094 L 65.894531 25.746094 L 65.894531 21.734375 C 65.894531 21.664062 65.839844 21.601562 65.769531 21.601562 L 65.429688 21.601562 L 64.402344 22.535156 C 64.375 22.5625 64.359375 22.617188 64.382812 22.671875 L 64.464844 22.914062 C 64.484375 22.976562 64.554688 22.988281 64.617188 22.960938 L 65.214844 22.660156 L 65.214844 25.746094 L 64.25 25.746094 C 64.171875 25.746094 64.117188 25.800781 64.117188 25.875 L 64.117188 26.171875 C 64.117188 26.242188 64.171875 26.296875 64.25 26.296875 M 67.5625 25.039062 C 67.5625 25.792969 68.179688 26.367188 69.144531 26.367188 C 70.148438 26.367188 70.753906 25.792969 70.753906 25.039062 C 70.753906 24.445312 70.234375 24.03125 69.917969 23.886719 L 69.917969 23.859375 C 70.214844 23.707031 70.628906 23.328125 70.628906 22.796875 C 70.628906 22.039062 70 21.53125 69.152344 21.53125 C 68.324219 21.53125 67.6875 22.039062 67.6875 22.796875 C 67.6875 23.335938 68.101562 23.714844 68.398438 23.867188 L 68.398438 23.886719 C 68.144531 24.003906 67.5625 24.441406 67.5625 25.039062 M 69.160156 23.5625 C 68.621094 23.480469 68.386719 23.199219 68.386719 22.824219 C 68.386719 22.402344 68.722656 22.101562 69.136719 22.101562 C 69.59375 22.101562 69.933594 22.402344 69.933594 22.824219 C 69.933594 23.191406 69.691406 23.488281 69.160156 23.5625 M 68.28125 25.054688 C 68.28125 24.6875 68.601562 24.308594 69.160156 24.226562 C 69.71875 24.308594 70.035156 24.6875 70.035156 25.054688 C 70.035156 25.515625 69.640625 25.808594 69.152344 25.808594 C 68.695312 25.808594 68.28125 25.511719 68.28125 25.054688 M 71.464844 24.433594 C 71.464844 25.496094 71.988281 26.367188 73.09375 26.367188 C 73.929688 26.367188 74.632812 25.65625 74.632812 24.785156 C 74.632812 23.832031 73.921875 23.285156 73.191406 23.285156 C 72.726562 23.285156 72.328125 23.507812 72.273438 23.542969 C 72.5 22.691406 73.597656 22.121094 73.914062 22.015625 C 74.046875 21.976562 74.074219 21.898438 74.039062 21.816406 L 73.921875 21.53125 C 73.894531 21.457031 73.832031 21.421875 73.75 21.449219 C 73.113281 21.691406 71.464844 22.507812 71.464844 24.433594 M 73.085938 25.746094 C 72.335938 25.746094 72.078125 24.957031 72.132812 24.378906 C 72.175781 24.253906 72.535156 23.851562 73.078125 23.851562 C 73.589844 23.851562 74 24.273438 74 24.792969 C 74 25.308594 73.597656 25.746094 73.085938 25.746094 M 75.15625 25.75 C 75.308594 25.929688 75.71875 26.367188 76.574219 26.367188 C 77.527344 26.367188 78.132812 25.800781 78.132812 25.046875 C 78.132812 24.453125 77.621094 24.039062 77.296875 23.902344 L 77.296875 23.882812 C 77.609375 23.734375 78.007812 23.328125 78.007812 22.796875 C 78.007812 22.023438 77.367188 21.53125 76.566406 21.53125 C 75.816406 21.53125 75.289062 22.140625 75.289062 22.140625 C 75.242188 22.1875 75.234375 22.273438 75.289062 22.320312 L 75.542969 22.546875 C 75.605469 22.601562 75.683594 22.589844 75.726562 22.535156 C 75.863281 22.382812 76.113281 22.148438 76.527344 22.148438 C 76.933594 22.148438 77.3125 22.4375 77.3125 22.902344 C 77.3125 23.308594 76.988281 23.640625 76.339844 23.640625 L 75.953125 23.640625 C 75.855469 23.640625 75.816406 23.679688 75.816406 23.785156 L 75.816406 24.082031 C 75.816406 24.179688 75.867188 24.226562 75.945312 24.226562 L 76.332031 24.226562 C 77.070312 24.226562 77.421875 24.621094 77.421875 25.035156 C 77.421875 25.496094 77.007812 25.777344 76.558594 25.777344 C 76.050781 25.777344 75.664062 25.40625 75.621094 25.351562 C 75.566406 25.289062 75.503906 25.28125 75.433594 25.339844 L 75.164062 25.585938 C 75.117188 25.628906 75.117188 25.703125 75.15625 25.75 "/>
<path style=" stroke:none;fill-rule:nonzero;fill:rgb(13.729858%,12.159729%,12.548828%);fill-opacity:1;" d="M 35.519531 18 C 35.519531 18.097656 35.597656 18.1875 35.707031 18.1875 L 36.613281 18.1875 C 36.710938 18.1875 36.800781 18.097656 36.800781 18 L 36.800781 15.683594 L 38.035156 15.683594 C 39.238281 15.683594 40.234375 14.683594 40.234375 13.460938 C 40.234375 12.269531 39.238281 11.28125 38.023438 11.28125 L 35.707031 11.28125 C 35.597656 11.28125 35.519531 11.371094 35.519531 11.46875 Z M 36.800781 14.476562 L 36.800781 12.496094 L 37.945312 12.496094 C 38.496094 12.496094 38.960938 12.910156 38.960938 13.453125 C 38.960938 14.035156 38.496094 14.476562 37.945312 14.476562 Z M 40.984375 14.746094 C 40.984375 16.71875 42.550781 18.285156 44.523438 18.285156 C 46.496094 18.285156 48.074219 16.71875 48.074219 14.746094 C 48.074219 12.773438 46.496094 11.183594 44.523438 11.183594 C 42.550781 11.183594 40.984375 12.773438 40.984375 14.746094 M 42.265625 14.746094 C 42.265625 13.503906 43.28125 12.464844 44.523438 12.464844 C 45.765625 12.464844 46.792969 13.503906 46.792969 14.746094 C 46.792969 15.988281 45.765625 17.003906 44.523438 17.003906 C 43.28125 17.003906 42.265625 15.988281 42.265625 14.746094 M 49.109375 18 C 49.109375 18.097656 49.1875 18.1875 49.296875 18.1875 L 52.90625 18.1875 C 53.015625 18.1875 53.09375 18.097656 53.09375 18 L 53.09375 17.191406 C 53.09375 17.09375 53.015625 17.003906 52.90625 17.003906 L 50.390625 17.003906 L 50.390625 11.46875 C 50.390625 11.371094 50.304688 11.28125 50.203125 11.28125 L 49.296875 11.28125 C 49.1875 11.28125 49.109375 11.371094 49.109375 11.46875 Z M 54.386719 18 C 54.386719 18.097656 54.476562 18.1875 54.574219 18.1875 L 55.492188 18.1875 C 55.589844 18.1875 55.679688 18.097656 55.679688 18 L 55.679688 11.46875 C 55.679688 11.371094 55.589844 11.28125 55.492188 11.28125 L 54.574219 11.28125 C 54.476562 11.28125 54.386719 11.371094 54.386719 11.46875 Z M 58.617188 18 C 58.617188 18.097656 58.707031 18.1875 58.804688 18.1875 L 59.722656 18.1875 C 59.820312 18.1875 59.910156 18.097656 59.910156 18 L 59.910156 12.464844 L 61.417969 12.464844 C 61.527344 12.464844 61.605469 12.378906 61.605469 12.277344 L 61.605469 11.46875 C 61.605469 11.371094 61.527344 11.28125 61.417969 11.28125 L 57.109375 11.28125 C 57 11.28125 56.921875 11.371094 56.921875 11.46875 L 56.921875 12.277344 C 56.921875 12.378906 57 12.464844 57.109375 12.464844 L 58.617188 12.464844 Z M 62.730469 18 C 62.730469 18.097656 62.808594 18.1875 62.917969 18.1875 L 66.933594 18.1875 C 67.039062 18.1875 67.121094 18.097656 67.121094 18 L 67.121094 17.191406 C 67.121094 17.09375 67.039062 17.003906 66.933594 17.003906 L 64.011719 17.003906 L 64.011719 15.277344 L 66.449219 15.277344 C 66.546875 15.277344 66.636719 15.199219 66.636719 15.089844 L 66.636719 14.273438 C 66.636719 14.171875 66.546875 14.082031 66.449219 14.082031 L 64.011719 14.082031 L 64.011719 12.464844 L 66.933594 12.464844 C 67.039062 12.464844 67.121094 12.378906 67.121094 12.277344 L 67.121094 11.46875 C 67.121094 11.371094 67.039062 11.28125 66.933594 11.28125 L 62.917969 11.28125 C 62.808594 11.28125 62.730469 11.371094 62.730469 11.46875 Z M 68.125 14.746094 C 68.125 16.71875 69.714844 18.285156 71.6875 18.285156 C 72.5625 18.285156 73.414062 17.980469 74.082031 17.328125 C 74.152344 17.257812 74.171875 17.132812 74.09375 17.0625 L 73.480469 16.429688 C 73.421875 16.371094 73.3125 16.363281 73.234375 16.429688 C 72.820312 16.765625 72.316406 16.992188 71.726562 16.992188 C 70.464844 16.992188 69.515625 15.949219 69.515625 14.714844 C 69.515625 13.472656 70.453125 12.417969 71.714844 12.417969 C 72.269531 12.417969 72.820312 12.632812 73.234375 13 C 73.3125 13.078125 73.414062 13.078125 73.480469 13 L 74.082031 12.378906 C 74.164062 12.296875 74.164062 12.179688 74.074219 12.101562 C 73.402344 11.5 72.683594 11.183594 71.6875 11.183594 C 69.714844 11.183594 68.125 12.773438 68.125 14.746094 M 75.394531 18 C 75.394531 18.097656 75.484375 18.1875 75.582031 18.1875 L 76.480469 18.1875 C 76.589844 18.1875 76.667969 18.097656 76.667969 18 L 76.667969 13.757812 L 76.675781 13.757812 L 80.800781 18.285156 L 81.035156 18.285156 C 81.136719 18.285156 81.222656 18.207031 81.222656 18.109375 L 81.222656 11.46875 C 81.222656 11.371094 81.136719 11.28125 81.035156 11.28125 L 80.128906 11.28125 C 80.019531 11.28125 79.941406 11.371094 79.941406 11.46875 L 79.941406 15.542969 L 79.933594 15.542969 L 75.828125 11.183594 L 75.582031 11.183594 C 75.484375 11.183594 75.394531 11.261719 75.394531 11.363281 Z M 82.921875 18 C 82.921875 18.097656 83.007812 18.1875 83.109375 18.1875 L 84.023438 18.1875 C 84.125 18.1875 84.214844 18.097656 84.214844 18 L 84.214844 11.46875 C 84.214844 11.371094 84.125 11.28125 84.023438 11.28125 L 83.109375 11.28125 C 83.007812 11.28125 82.921875 11.371094 82.921875 11.46875 Z M 85.503906 14.746094 C 85.503906 16.71875 87.09375 18.285156 89.066406 18.285156 C 89.941406 18.285156 90.792969 17.980469 91.460938 17.328125 C 91.53125 17.257812 91.550781 17.132812 91.472656 17.0625 L 90.859375 16.429688 C 90.800781 16.371094 90.691406 16.363281 90.613281 16.429688 C 90.199219 16.765625 89.695312 16.992188 89.105469 16.992188 C 87.839844 16.992188 86.894531 15.949219 86.894531 14.714844 C 86.894531 13.472656 87.832031 12.417969 89.09375 12.417969 C 89.648438 12.417969 90.199219 12.632812 90.613281 13 C 90.691406 13.078125 90.792969 13.078125 90.859375 13 L 91.460938 12.378906 C 91.539062 12.296875 91.539062 12.179688 91.453125 12.101562 C 90.78125 11.5 90.0625 11.183594 89.066406 11.183594 C 87.09375 11.183594 85.503906 12.773438 85.503906 14.746094 M 92.378906 14.746094 C 92.378906 16.71875 93.945312 18.285156 95.917969 18.285156 C 97.890625 18.285156 99.46875 16.71875 99.46875 14.746094 C 99.46875 12.773438 97.890625 11.183594 95.917969 11.183594 C 93.945312 11.183594 92.378906 12.773438 92.378906 14.746094 M 93.660156 14.746094 C 93.660156 13.503906 94.675781 12.464844 95.917969 12.464844 C 97.164062 12.464844 98.1875 13.503906 98.1875 14.746094 C 98.1875 15.988281 97.164062 17.003906 95.917969 17.003906 C 94.675781 17.003906 93.660156 15.988281 93.660156 14.746094 "/>
<g clip-path="url(#clip4)" clip-rule="nonzero">
<path style="fill:none;stroke-width:0.248;stroke-linecap:butt;stroke-linejoin:miter;stroke:rgb(13.729858%,12.159729%,12.548828%);stroke-opacity:1;stroke-miterlimit:10;" d="M -0.00153381 0.0012771 L -1.277033 0.0453981 M 0.0064882 0.675126 L -1.273022 0.655071 M -0.0175778 1.352986 L -1.297088 1.268754 M -0.0737319 2.018812 L -1.349231 1.886449 M -0.161974 2.68865 L -1.429451 2.492111 M -0.282304 3.350466 L -1.537749 3.093761 M -0.430711 4.00827 L -1.670112 3.691401 M -0.611207 4.662064 L -1.834563 4.281019 M -0.82379 5.295803 L -2.031102 4.874647 M -1.06445 5.92553 L -2.251707 5.44421 M -1.333187 6.543225 L -2.496379 6.00575 M -1.630002 7.148887 L -2.765116 6.555258 M -1.958904 7.738504 L -3.065941 7.092733 M -2.311872 8.312078 L -3.386822 7.614163 M -2.692918 8.869607 L -3.731768 8.123561 M -3.098029 9.407082 L -4.100781 8.612903 M -3.527207 9.928512 L -4.493859 9.086202 M -3.98045 10.425877 L -4.906992 9.539445 M -4.45776 10.903187 L -5.33617 9.976645 M -4.955124 11.360441 L -5.789413 10.389778 M -5.468533 11.785607 L -6.266723 10.786867 M -6.001997 12.19473 L -6.756066 11.159891 M -6.559526 12.575775 L -7.265463 11.504837 M -7.1331 12.928744 L -7.786894 11.825717 M -7.722718 13.257646 L -8.320357 12.126543 M -8.328379 13.558471 L -8.869865 12.399291 M -8.946074 13.827209 L -9.431406 12.643962 M -9.575802 14.07188 L -10.004979 12.864568 M -10.217563 14.284463 L -10.586575 13.057096 M -10.863334 14.464958 L -11.180204 13.225558 M -11.521139 14.613365 L -11.777843 13.361932 M -12.186966 14.733696 L -12.379494 13.470229 M -12.848782 14.825949 L -12.997189 13.55446 M -13.52263 14.882103 L -13.606861 13.606603 M -14.196479 14.91018 L -14.216534 13.630669 M -14.866317 14.906169 L -14.834229 13.626658 M -15.540166 14.874081 L -15.447913 13.59457 M -16.214014 14.805894 L -16.057585 13.534405 M -16.883852 14.709629 L -16.663247 13.446163 M -17.537646 14.581277 L -17.268909 13.329844 M -18.195451 14.424848 L -17.866548 13.185448 M -18.841222 14.23232 L -18.452155 13.012975 M -19.482983 14.011715 L -19.033751 12.812424 M -20.1087 13.763032 L -19.599302 12.587808 M -20.714362 13.486273 L -20.168865 12.331104 M -21.316012 13.177426 L -20.710351 12.050334 M -21.901619 12.844513 L -21.243814 11.745497 M -22.471182 12.483522 L -21.761234 11.416595 M -23.0247 12.094455 L -22.262609 11.063627 M -23.558164 11.681321 L -22.747941 10.690603 M -24.071572 11.244122 L -23.217228 10.293514 M -24.564926 10.782856 L -23.666461 9.872358 M -25.030203 10.305547 L -24.099649 9.427137 M -25.479435 9.804171 L -24.504761 8.969882 M -25.904602 9.27873 L -24.893828 8.492573 M -26.301691 8.733233 L -25.254819 7.999219 M -26.678725 8.171693 L -25.595754 7.489822 M -27.023672 7.594108 L -25.908613 6.96438 M -27.344552 7.000479 L -26.201416 6.422895 M -27.633345 6.398829 L -26.470153 5.865365 M -27.89406 5.773112 L -26.706802 5.299814 M -28.130709 5.139373 L -26.919386 4.72624 M -28.331259 4.497613 L -27.103892 4.140633 M -28.503733 3.843819 L -27.260321 3.551016 M -28.644118 3.190025 L -27.388673 2.945354 M -28.756426 2.520188 L -27.488948 2.339693 M -28.836646 1.85035 L -27.561146 1.734031 M -28.884778 1.184523 L -27.609279 1.116336 M -28.904833 0.506664 L -27.625323 0.502653 M -28.8928 -0.167185 L -27.61329 -0.10702 M -28.848679 -0.833012 L -27.573179 -0.724715 M -28.77247 -1.50686 L -27.504992 -1.334387 M -28.664173 -2.176698 L -27.408728 -1.936038 M -28.53181 -2.826481 L -27.280376 -2.545711 M -28.359336 -3.484286 L -27.127958 -3.139339 M -28.162797 -4.126046 L -26.947463 -3.724946 M -27.930159 -4.763796 L -26.738891 -4.298519 M -27.673455 -5.385502 L -26.502241 -4.864071 M -27.384662 -5.995174 L -26.241526 -5.421601 M -27.067793 -6.592814 L -25.956745 -5.963086 M -26.730868 -7.166387 L -25.639875 -6.49655 M -26.361856 -7.731939 L -25.302951 -7.009958 M -25.964767 -8.277436 L -24.945971 -7.507323 M -25.543611 -8.806888 L -24.560915 -7.984632 M -25.09839 -9.312275 L -24.159815 -8.445898 M -24.633113 -9.801617 L -23.734648 -8.891119 M -24.143771 -10.262883 L -23.289427 -9.312275 M -23.634373 -10.704093 L -22.82415 -9.713375 M -23.108931 -11.117227 L -22.334807 -10.098431 M -22.559424 -11.510305 L -21.837443 -10.4514 M -21.989861 -11.875306 L -21.320023 -10.784313 M -21.408265 -12.212231 L -20.790571 -11.09316 M -20.806615 -12.525089 L -20.245074 -11.373931 M -20.196942 -12.80987 L -19.691555 -11.630635 M -19.575236 -13.058553 L -19.117982 -11.863273 M -18.937487 -13.283169 L -18.540397 -12.067835 M -18.291715 -13.479708 L -17.95479 -12.244319 M -17.63391 -13.640148 L -17.357151 -12.392726 M -16.980116 -13.772511 L -16.751489 -12.513056 M -16.310279 -13.876797 L -16.145827 -12.605309 M -15.640441 -13.948995 L -15.536155 -12.669485 M -14.970603 -13.985095 L -14.91846 -12.705584 M -14.296754 -13.993117 L -14.308787 -12.713606 M -13.618894 -13.973062 L -13.695104 -12.697562 M -12.953068 -13.920918 L -13.077409 -12.645419 M -12.28323 -13.836687 L -12.471747 -12.56921 M -11.617403 -13.720368 L -11.870096 -12.464924 M -10.955587 -13.571961 L -11.272457 -12.332561 M -10.313827 -13.395477 L -10.674817 -12.16811 M -9.672066 -13.186905 L -10.08921 -11.979592 M -9.038327 -12.950255 L -9.515637 -11.762998 M -8.420632 -12.681518 L -8.954096 -11.518327 M -7.814971 -12.384704 L -8.404588 -11.24959 M -7.221342 -12.059813 L -7.867114 -10.956786 M -6.643757 -11.710855 L -7.341672 -10.635906 M -6.090239 -11.337832 L -6.828264 -10.29096 M -5.552764 -10.93272 L -6.33491 -9.921947 M -5.027323 -10.507554 L -5.861612 -9.53288 M -4.529958 -10.05431 L -5.404357 -9.123757 M -4.048637 -9.581012 L -4.967158 -8.690569 M -3.591383 -9.083647 L -4.554024 -8.241337 M -3.158194 -8.566228 L -4.156935 -7.772049 M -2.745061 -8.032764 L -3.787922 -7.282707 M -2.368027 -7.483257 L -3.434954 -6.773309 M -2.007036 -6.909683 L -3.106051 -6.255889 M -1.678134 -6.320066 L -2.809237 -5.718415 M -1.377308 -5.718415 L -2.532478 -5.172918 M -1.100549 -5.10072 L -2.283795 -4.611378 M -0.855878 -4.470993 L -2.059179 -4.041815 M -0.643295 -3.837254 L -1.86264 -3.452198 M -0.458788 -3.187471 L -1.694178 -2.866591 M -0.302359 -2.529667 L -1.557804 -2.268951 M -0.178018 -1.867851 L -1.445495 -1.667301 M -0.0897759 -1.202024 L -1.361264 -1.053617 M -0.0255998 -0.528175 L -1.30511 -0.443944 " transform="matrix(0.973883,0,0,-0.973883,31.7554,19.0364)"/>
</g>
<path style="fill:none;stroke-width:0.141;stroke-linecap:round;stroke-linejoin:round;stroke:rgb(13.729858%,12.159729%,12.548828%);stroke-opacity:1;stroke-miterlimit:4;" d="M 0.00118084 0.00163007 C 0.269918 -0.672219 0.43838 -1.606783 0.586788 -2.882282 C 0.871569 -5.337017 0.229808 -7.535047 0.0332689 -8.349281 C -0.167281 -9.163515 0.153599 -10.318684 0.5186 -10.410937 C 0.5186 -10.410937 -0.877229 -10.563355 -1.47888 -10.539289 C -1.731573 -10.531267 -1.75965 -10.535278 -2.040421 -10.523245 C -3.015095 -10.479124 -4.017846 -10.426981 -4.078011 -10.378849 M -17.583063 -0.515789 C -17.583063 -0.515789 -18.617903 -0.67623 -19.716918 -0.612054 C -20.001699 -0.59601 -20.290491 -0.563922 -20.567251 -0.511778 C -20.72368 -0.483701 -20.876098 -0.447602 -21.020494 -0.403481 L -21.020494 -0.39947 C -21.096703 -0.379415 -21.172912 -0.351338 -21.245111 -0.323261 C -21.245111 -0.323261 -21.706376 -0.491723 -21.850772 -1.666948 C -21.850772 -1.666948 -21.910937 -2.826128 -22.059344 -3.291404 C -22.344126 -3.897066 -22.965832 -4.530805 -22.965832 -4.530805 C -22.965832 -4.530805 -23.134294 -4.719322 -22.929732 -4.907839 L -22.4805 -5.216686 M -21.686321 -5.545589 C -21.706376 -5.553611 -22.376214 -5.397182 -22.40028 -5.308939 C -22.40028 -5.308939 -22.424346 -5.256796 -22.388247 -5.220697 C -22.352148 -5.188609 -22.23984 -5.064268 -22.19973 -4.996081 C -22.183686 -4.968004 -22.179675 -4.955971 -22.111488 -4.807564 C -22.015223 -4.598992 -21.850772 -4.238001 -21.850772 -4.238001 C -21.710387 -3.877011 -21.734453 -3.812835 -21.734453 -3.812835 L -21.578024 -1.831399 C -21.557969 -0.932934 -21.028516 -0.427547 -21.028516 -0.427547 M -10.660069 3.218455 C -10.660069 3.218455 -10.716223 3.31472 -10.760345 3.390929 C -10.788422 3.439061 -10.812488 3.479171 -10.816499 3.491204 C -10.828532 3.519281 -10.848587 3.567413 -10.804466 3.623567 C -10.764356 3.683732 -10.660069 3.639611 -10.648036 3.627578 C -10.636003 3.619556 -10.575838 3.543347 -10.495618 3.479171 C -10.411387 3.410984 -10.42342 3.47516 -10.355233 3.166312 C -10.339189 3.102136 -10.335178 3.049993 -10.339189 3.009883 C -10.363255 2.849443 -10.551772 2.87752 -10.756334 2.741146 C -11.017049 2.568673 -11.309852 2.75719 -11.309852 2.75719 C -11.309852 2.75719 -11.726997 3.154279 -11.755074 3.194389 C -11.77914 3.230488 -11.827272 3.230488 -11.863371 3.186367 C -11.903481 3.142246 -11.879415 3.138235 -12.043866 3.134224 C -12.204306 3.134224 -12.280515 3.230488 -12.30057 3.27862 C -12.324636 3.322742 -12.096009 3.414995 -12.096009 3.414995 C -12.096009 3.414995 -11.843316 3.563402 -11.590622 3.587468 C -11.550512 3.587468 -11.510402 3.591479 -11.474303 3.59549 C -11.293808 3.615545 -11.177489 3.623567 -11.005016 3.523292 L -10.772378 3.382907 M -7.483354 -5.685974 C -7.483354 -5.685974 -7.499398 -6.993561 -7.495387 -7.097847 C -7.491376 -7.198122 -7.459288 -7.631311 -7.583629 -7.803784 C -7.70797 -7.976257 -7.836322 -8.285105 -7.824289 -8.409446 C -7.808245 -8.533787 -7.808245 -8.754392 -7.832311 -8.818568 C -7.856377 -8.882744 -7.984729 -9.287856 -7.984729 -9.287856 C -7.984729 -9.287856 -8.036872 -9.620769 -7.728025 -9.656868 C -7.419178 -9.696978 -6.998022 -9.700989 -6.833571 -9.620769 C -6.66912 -9.536538 -6.540768 -9.372087 -6.5889 -9.26379 C -6.633021 -9.155493 -6.757362 -9.083294 -6.837582 -8.979008 C -6.917802 -8.874722 -7.014066 -8.678183 -6.981978 -8.553842 C -6.981978 -8.553842 -6.933846 -8.38538 -6.933846 -8.309171 C -6.937857 -8.240984 -6.953901 -7.94818 -6.881703 -7.843894 C -6.809505 -7.743619 -6.284063 -6.941418 -6.284063 -6.941418 C -6.284063 -6.941418 -6.03137 -6.568395 -5.947139 -5.481413 M -7.443244 -5.653886 C -6.853626 -5.521523 -6.336206 -5.453336 -5.95115 -5.417237 C -5.493895 -5.377127 -5.217136 -5.381138 -5.217136 -5.381138 M -11.426171 -6.492186 C -11.466281 -7.097847 -11.514413 -7.531036 -11.514413 -7.531036 C -11.606666 -8.381369 -12.047877 -9.488406 -12.047877 -9.488406 C -12.047877 -9.488406 -11.586611 -9.472362 -11.161445 -9.331977 C -10.736278 -9.187581 -10.46353 -8.858678 -10.058419 -9.091316 M -13.568048 -8.228951 C -13.568048 -8.228951 -12.424911 -9.440274 -12.051888 -9.484395 M -0.833108 -10.515223 C -0.833108 -10.515223 -2.060476 -10.278574 -2.112619 -8.313182 M -9.689406 4.056755 L -9.484845 3.270598 M -13.756565 1.1207 L -13.620191 1.136744 C -13.620191 1.136744 -13.279255 1.084601 -13.239145 1.08059 C -13.199035 1.08059 -12.890188 1.024436 -12.890188 1.024436 C -12.862111 0.936194 -13.042606 0.876029 -13.042606 0.876029 L -13.371509 0.823886 L -13.267222 0.655424 C -13.166947 0.490973 -13.391564 0.358609 -13.391564 0.358609 C -13.327387 0.0417401 -13.527938 -0.050513 -13.527938 -0.050513 C -13.836785 -0.259085 -14.133599 -0.07859 -14.350194 0.0457511 C -14.402337 0.0738281 -14.45448 0.101905 -14.49459 0.12196 C -14.715195 0.206191 -14.65503 0.410752 -14.659041 0.611303 C -14.663052 0.811853 -14.582832 0.988337 -14.522667 1.064546 C -14.466513 1.140755 -14.201786 1.237019 -14.201786 1.237019 L -13.97717 1.176854 L -13.756565 1.1207 L -13.748543 1.116689 C -13.748543 1.116689 -13.648268 0.956249 -13.692389 0.928172 C -13.740521 0.892073 -13.917005 0.815864 -13.989203 0.855974 L -14.065412 0.896084 M -11.009027 -4.286133 C -11.009027 -4.286133 -11.241665 -4.225968 -11.297819 -4.129704 M -7.539508 4.056755 C -7.539508 4.056755 -7.338958 3.936425 -7.130385 3.932414 M -8.38583 4.413735 C -8.38583 4.413735 -8.18528 4.289394 -7.972696 4.289394 M -13.038595 3.699776 L -12.689638 3.467138 M -1.892013 -1.51453 C -5.11285 -0.652164 -3.007073 1.469658 -2.67817 1.778505 M -2.321191 -1.747168 L -2.830588 -3.748659 M -7.206594 -2.176345 L -6.641043 -2.060026 M -6.961923 -2.144257 L -6.897747 -2.216455 M -7.403134 3.992579 L -7.4272 3.896315 M -8.201324 4.281372 L -8.209346 4.221206 M -12.890188 3.559391 L -12.942331 3.479171 M -11.149412 -4.254045 L -11.225621 -4.31421 M -11.073203 1.353338 L -11.049137 1.317239 M -11.313863 1.228997 C -11.313863 1.228997 -11.077214 1.553889 -10.960895 1.461636 M -10.459519 0.655424 C -10.459519 0.655424 -10.242925 0.703556 -10.118584 0.787787 M -8.085004 3.731864 C -8.085004 3.731864 -8.093026 3.695765 -7.956652 3.687743 M -8.221379 3.547358 C -8.221379 3.547358 -8.133136 3.471149 -8.008795 3.463127 M -9.78567 -6.452076 C -9.78567 -6.452076 -9.801714 -6.576417 -9.821769 -6.704769 C -9.841824 -6.817077 -9.86589 -6.929385 -9.885946 -6.965484 C -9.930067 -7.037682 -10.014298 -7.294387 -9.98221 -7.334497 C -9.98221 -7.334497 -9.90199 -7.58719 -9.773637 -7.406695 L -9.645285 -7.226199 L -9.5049 -7.001583 M -9.845835 -6.046964 C -9.853857 -6.123173 -9.922045 -6.403944 -9.749571 -6.42801 C -9.749571 -6.42801 -9.589131 -6.432021 -9.581109 -6.275591 C -9.573087 -6.115151 -9.496878 -6.038942 -9.476823 -5.974766 M -9.02358 -5.004103 C -9.02358 -5.004103 -9.244185 -4.811575 -9.532977 -5.076301 C -9.733527 -5.260807 -9.773637 -5.296906 -9.781659 -5.304928 L -9.781659 -5.300917 M -9.781659 -5.300917 C -9.781659 -5.304928 -9.781659 -5.304928 -9.781659 -5.304928 M -9.781659 -5.304928 C -9.978199 -5.569655 -9.966166 -5.545589 -9.994243 -5.617787 C -10.014298 -5.677952 -10.106551 -6.067019 -10.106551 -6.127184 C -10.106551 -6.183338 -10.118584 -6.299658 -10.146661 -6.323724 C -10.178749 -6.343779 -10.3432 -6.456087 -10.359244 -6.432021 C -10.379299 -6.407955 -10.519684 -6.203393 -10.587871 -6.187349 C -10.652047 -6.175316 -10.752323 -6.163283 -10.712212 -6.255536 C -10.668091 -6.34779 -10.968917 -6.303669 -10.760345 -6.480153 L -10.559794 -6.656637 C -10.559794 -6.656637 -10.371277 -6.817077 -10.254958 -6.841143 C -10.138639 -6.86922 -9.9421 -6.853176 -9.849846 -6.700758 M -9.204075 -3.812835 C -9.204075 -3.812835 -10.347211 -4.270089 -9.881935 -5.328995 M -9.741549 -4.173825 C -9.741549 -4.173825 -9.797703 -3.4719 -9.781659 -3.191129 C -9.773637 -3.038711 -9.609186 -2.27662 -9.46479 -1.618816 M -6.689175 -2.725853 L -6.552801 -2.641622 M -3.536525 -9.725055 C -3.536525 -9.725055 -2.950919 -10.386871 -2.47762 -10.495168 M -4.603452 0.0457511 C -4.599441 0.0978942 -4.166253 1.449603 -3.327953 1.794549 C -3.019106 1.971033 -2.658115 1.822626 -2.658115 1.822626 C -2.481631 1.746417 -1.976244 1.942956 -1.39866 1.497735 L -0.933383 1.642131 C -0.139204 1.770483 0.253874 1.084601 0.253874 0.659435 C 0.253874 0.234268 -0.323711 -0.307217 -0.323711 -0.307217 L -0.917339 -0.792549 C -1.08179 -1.081341 -1.695474 -1.39821 -1.883991 -1.526563 C -2.164762 -1.719091 -2.465587 -1.75519 -2.762401 -1.691014 C -3.684932 -1.502497 -4.543287 -0.375404 -4.543287 -0.375404 M -6.873681 0.815864 C -6.873681 0.815864 -6.653076 1.100645 -6.31214 1.253063 C -6.23192 1.289162 -4.615485 2.135484 -3.15548 1.870758 M -1.619265 -5.409215 C -1.619265 -5.409215 -2.152729 -5.341028 -2.541796 -5.609765 C -2.622016 -5.665919 -2.698225 -5.734106 -2.762401 -5.822348 C -3.003062 -6.159272 -3.989769 -6.977517 -4.643562 -7.502959 C -4.860157 -7.679443 -5.040652 -7.823839 -5.144938 -7.904059 C -5.201092 -7.94818 -5.39362 -8.236973 -5.39362 -8.236973 C -5.39362 -8.236973 -5.164993 -4.578937 -2.766412 -1.71508 M -4.619496 -7.539058 C -4.619496 -7.539058 -4.747849 -8.814557 -4.904278 -9.191592 C -5.064718 -9.568626 -5.177026 -9.86544 -5.173015 -10.013847 C -5.173015 -10.158244 -5.277301 -10.547311 -5.325433 -10.651597 C -5.357521 -10.715773 -5.417686 -10.82407 -5.449774 -10.948411 C -5.469829 -11.020609 -5.477851 -11.092808 -5.47384 -11.160995 C -5.453785 -11.361545 -5.441752 -11.530007 -5.297356 -11.550062 C -5.15296 -11.570117 -4.928344 -11.517974 -4.928344 -11.517974 C -4.928344 -11.517974 -4.723783 -11.594183 -4.619496 -11.598194 C -4.51521 -11.606216 -4.39488 -11.626271 -4.318671 -11.578139 C -4.242462 -11.530007 -4.090044 -11.477864 -4.025868 -11.425721 C -3.961692 -11.377589 -3.773174 -11.213138 -3.777185 -11.088797 C -3.777185 -10.960444 -4.086033 -10.527256 -4.086033 -10.527256 C -4.086033 -10.527256 -4.102077 -10.475113 -4.122132 -10.390882 C -4.166253 -10.194343 -4.226418 -9.82533 -4.126143 -9.62478 C -3.985758 -9.339999 -2.425477 -7.166034 -2.529763 -5.625809 M -4.960432 -1.931674 C -4.980487 -2.056015 -5.169004 -2.75393 -5.185048 -2.898326 C -5.205103 -3.042722 -5.225158 -3.187118 -5.15296 -3.371624 C -5.080762 -3.55212 -4.980487 -4.005363 -4.99252 -4.205913 C -5.004553 -4.402453 -5.100817 -4.931905 -5.169004 -5.228719 C -5.181037 -5.284873 -5.19307 -5.328995 -5.201092 -5.365094 L -5.237191 -5.525534 L -5.501917 -6.091085 C -5.501917 -6.091085 -5.935106 -6.933396 -6.011315 -7.125924 C -6.087524 -7.322464 -6.436482 -7.980268 -6.075491 -8.910821 L -5.931095 -9.436263 C -5.686424 -10.206376 -5.598182 -10.270552 -5.321422 -10.318684 M -8.474072 -0.993099 C -8.474072 -0.993099 -8.58638 -0.908868 -8.554292 -0.792549 C -8.522204 -0.67623 -8.646545 -0.455624 -8.550281 -0.403481 C -8.486105 -0.367382 -8.474072 -0.194909 -8.401874 -0.066557 C -8.365775 -0.00639194 -8.309621 0.0457511 -8.22539 0.0658061 C -7.964674 0.113938 -8.06896 0.358609 -7.880443 0.418775 C -7.687915 0.474929 -7.519453 0.615314 -7.451266 0.611303 C -7.383079 0.607292 -7.138407 0.711578 -7.07022 0.723611 C -7.038132 0.731633 -6.957912 0.743666 -6.86967 0.751688 C -6.765384 0.763721 -6.657087 0.767732 -6.624999 0.751688 C -6.592911 0.727622 -6.46857 0.667457 -6.348239 0.623336 C -6.264008 0.587237 -6.183788 0.55916 -6.147689 0.55916 C -6.059447 0.555149 -5.738567 0.422786 -5.678402 0.418775 C -5.618237 0.414764 -5.425708 0.406741 -5.445763 0.330532 C -5.469829 0.254323 -5.51395 0.190147 -5.47384 0.170092 C -5.429719 0.150037 -5.309389 0.0818502 -5.317411 0.0417401 C -5.329444 -0.00238093 -5.39362 -0.090623 -5.381587 -0.142766 C -5.365543 -0.194909 -5.241202 -0.371393 -5.217136 -0.431558 C -5.197081 -0.491723 -5.185048 -0.587988 -5.229169 -0.624087 C -5.277301 -0.664197 -5.321422 -0.696285 -5.289334 -0.732384 C -5.257246 -0.768483 -5.277301 -0.852714 -5.3134 -0.884802 C -5.349499 -0.91689 -5.397631 -1.005132 -5.43373 -1.049253 C -5.47384 -1.089363 -5.574116 -1.261836 -5.626259 -1.297935 C -5.682413 -1.338045 -5.834831 -1.322001 -5.854886 -1.386177 C -5.874941 -1.454364 -6.083513 -1.518541 -6.135656 -1.51453 C -6.183788 -1.510519 -6.448515 -1.682992 -6.496647 -1.578706 C -6.540768 -1.474419 -6.536757 -1.293924 -6.516702 -1.229748 C -6.496647 -1.161561 -6.416427 -1.109418 -6.396372 -1.057275 C -6.376316 -1.009143 -6.380327 -0.932934 -6.404394 -0.904857 C -6.42846 -0.87678 -6.556812 -0.768483 -6.448515 -0.656175 C -6.340217 -0.543866 -6.127634 -0.146777 -6.087524 -0.03848 C -6.047414 0.0698171 -6.083513 0.178114 -6.107579 0.206191 C -6.131645 0.234268 -6.400383 0.386686 -6.444504 0.406741 C -6.484614 0.426797 -6.82956 0.498995 -6.905769 0.494984 C -6.981978 0.490973 -7.202583 0.511028 -7.290826 0.454874 C -7.379068 0.40273 -7.595662 0.32251 -7.639783 0.290422 C -7.683904 0.258334 -7.856377 0.101905 -7.856377 0.101905 L -8.097037 -0.106667 C -8.097037 -0.106667 -8.389841 -0.387437 -8.417918 -0.993099 C -8.421929 -1.129473 -8.413907 -1.281891 -8.389841 -1.446342 C -8.389841 -1.446342 -8.353742 -1.719091 -8.18528 -1.923652 C -8.137148 -1.983817 -7.784179 -2.256565 -7.784179 -2.256565 C -7.784179 -2.256565 -7.639783 -2.284642 -7.607695 -2.284642 C -7.571596 -2.288653 -7.475332 -2.328763 -7.4272 -2.421016 C -7.383079 -2.517281 -7.278793 -2.898326 -7.062198 -2.83415 L -6.90978 -2.693765 C -6.90978 -2.693765 -6.685164 -2.782007 -6.645054 -2.802062 C -6.608955 -2.818106 -6.251975 -2.99459 -5.83082 -2.392939 C -5.786699 -2.328763 -5.742578 -2.260576 -5.698457 -2.176345 C -5.698457 -2.176345 -5.554061 -1.807333 -5.39362 -1.510519 C -5.357521 -1.490463 -5.225158 -1.406232 -5.181037 -1.390188 C -4.719772 -1.221726 -4.551309 -0.591999 -4.551309 -0.591999 C -4.551309 -0.591999 -4.547298 -0.503756 -4.551309 -0.375404 M -9.986221 -12.532758 L -9.986221 -13.070233 M -12.05991 -11.850887 L -12.063921 -12.396384 L -9.958144 -13.106332 L -6.107579 -11.975228 L -6.107579 -11.429732 M -12.05991 -11.850887 L -9.986221 -12.532758 L -6.107579 -11.429732 L -8.317643 -10.976488 L -9.729516 -11.305391 L -9.869901 -11.337479 L -12.05991 -11.850887 M -8.221379 -1.943707 C -8.221379 -1.943707 -8.289566 -2.148268 -8.365775 -2.200411 C -8.437973 -2.252554 -8.782919 -2.705798 -8.718743 -2.998601 C -8.654567 -3.295415 -8.502149 -3.808824 -8.502149 -3.808824 L -8.357753 -3.788769 L -7.03011 -3.628329 C -7.03011 -3.628329 -6.941868 -3.608274 -6.825549 -3.564153 C -6.697197 -3.516021 -6.544779 -3.443823 -6.456537 -3.343547 C -6.292085 -3.159041 -5.826809 -2.392939 -5.826809 -2.392939 M -9.733527 -10.362805 L -9.869901 -11.337479 M -9.869901 -11.337479 L -10.002265 -12.031383 L -9.729516 -11.305391 L -9.228141 -10.029891 L -8.610446 -11.710502 L -8.963414 -9.34401 L -8.98748 -9.091316 C -8.98748 -9.091316 -9.228141 -9.111371 -9.352482 -9.3039 C -9.472812 -9.496428 -9.589131 -9.909561 -9.62523 -10.074012 C -9.657318 -10.218409 -9.737538 -10.354783 -9.741549 -10.362805 C -9.889957 -10.366816 -9.877924 -10.154233 -9.877924 -10.154233 L -9.930067 -9.255768 C -9.98221 -9.219669 -10.018309 -9.175548 -10.042375 -9.127415 C -10.134628 -8.966975 -10.10254 -8.758403 -10.098529 -8.593952 C -10.098529 -8.389391 -9.914023 -8.152741 -9.777648 -7.855927 C -9.717483 -7.719553 -9.601164 -7.358563 -9.496878 -7.005594 C -9.368526 -6.584439 -9.252207 -6.171305 -9.252207 -6.171305 C -9.192042 -5.661908 -9.1038 -5.284873 -9.011547 -5.008114 C -8.810996 -4.414486 -8.58638 -4.278111 -8.538248 -4.23399 C -8.462039 -4.169814 -8.353742 -3.828879 -8.353742 -3.828879 M -8.935337 -9.339999 C -8.819018 -9.191592 -8.694677 -8.934887 -8.774897 -8.593952 C -8.90726 -8.0284 -8.887205 -7.904059 -8.835062 -7.739608 C -8.802974 -7.635322 -8.097037 -6.797022 -7.615717 -5.918612 C -7.563574 -5.826359 -7.515442 -5.730095 -7.471321 -5.637842 C -7.278793 -5.23273 -7.15044 -4.835641 -7.178517 -4.514761 L -6.753351 -3.600252 L -6.74934 -3.59223 M -8.574347 -0.575955 L -9.468801 -0.146777 M -7.038132 2.524552 C -7.038132 2.524552 -7.194561 1.894824 -6.324173 1.277129 M -4.390869 1.902846 C -4.390869 1.902846 -4.507188 2.127462 -4.848124 2.368123 C -5.012575 2.488453 -5.209114 2.604772 -5.425708 2.693014 M -6.552801 4.341537 C -6.552801 4.341537 -5.63027 4.012634 -5.048674 3.045982 C -5.048674 3.045982 -4.83208 2.672959 -4.83208 2.484442 C -4.83208 2.420266 -4.83208 2.3962 -4.83208 2.392189 M -4.83208 2.392189 C -4.83208 2.3962 -4.83208 2.456365 -4.83208 2.456365 M -8.702699 3.896315 C -8.702699 3.896315 -8.534237 3.310709 -8.22539 3.230488 C -8.22539 3.230488 -7.74808 3.214444 -7.355002 3.511259 M -7.234671 2.448343 C -7.234671 2.448343 -7.302859 2.123451 -7.350991 2.139495 C -7.399123 2.155539 -7.535497 2.384167 -7.535497 2.384167 L -7.391101 2.885542 L -7.326925 3.507248 L -7.326925 3.539336 L -6.837582 4.329504 C -6.82956 4.385658 -6.885714 4.67445 -6.945879 4.726593 C -7.006044 4.778736 -7.174506 4.971264 -7.186539 5.039451 C -7.194561 5.111649 -7.250715 5.344288 -7.250715 5.344288 C -7.250715 5.344288 -7.611706 5.051484 -7.687915 5.007363 C -7.768135 4.963242 -8.02885 5.015385 -8.097037 5.019396 C -8.169236 5.023407 -8.329676 4.975275 -8.369786 4.895055 C -8.409896 4.814835 -8.550281 4.566153 -8.590391 4.509999 C -8.62649 4.457856 -8.670611 4.19714 -8.670611 4.072799 C -8.670611 4.004612 -8.698688 3.952469 -8.734787 3.904337 C -8.762864 3.856205 -8.798963 3.816095 -8.815007 3.771974 C -8.847095 3.683732 -8.802974 3.599501 -8.782919 3.459116 C -8.766875 3.318731 -8.794952 3.082081 -8.810996 3.013894 C -8.82704 2.945707 -8.94737 2.945707 -8.975447 2.945707 C -9.003524 2.949718 -9.155943 2.861476 -9.155943 2.861476 C -9.155943 2.861476 -9.123855 3.054004 -9.111822 3.102136 C -9.1038 3.150268 -9.232152 3.427028 -9.260229 3.519281 C -9.288306 3.615545 -9.380559 4.293405 -9.380559 4.441812 C -9.376548 4.586208 -9.220119 5.007363 -9.208086 5.083572 C -9.196053 5.159781 -9.087756 5.480662 -9.011547 5.617036 C -8.983469 5.661157 -8.931326 5.729344 -8.871161 5.797531 C -8.754842 5.929894 -8.610446 6.07429 -8.562314 6.110389 C -8.490116 6.170555 -8.024839 6.282863 -8.024839 6.282863 C -8.024839 6.282863 -7.46731 6.339017 -7.166484 6.026158 C -7.166484 6.026158 -6.82956 6.014125 -6.729285 5.801542 C -6.62901 5.584948 -6.444504 5.23198 -6.464559 5.131704 C -6.484614 5.027418 -6.544779 4.919121 -6.536757 4.862967 C -6.524724 4.806813 -6.556812 4.481922 -6.592911 4.389669 C -6.596922 4.381647 -6.600933 4.369614 -6.604944 4.357581 C -6.62901 4.285383 -6.645054 4.225217 -6.637032 4.15703 C -6.62901 4.080821 -6.556812 3.824117 -6.600933 3.771974 C -6.645054 3.719831 -6.725274 3.667688 -6.725274 3.619556 C -6.729285 3.571424 -6.729285 3.342797 -6.801483 3.282632 C -6.877692 3.226477 -6.90978 3.138235 -6.913791 3.094114 C -6.913791 3.054004 -6.849615 2.75719 -6.945879 2.632849 C -6.981978 2.588728 -7.014066 2.552629 -7.042143 2.532574 C -7.07022 2.528563 -7.114341 2.536585 -7.154451 2.504497 Z M -9.793692 1.052513 C -9.793692 1.052513 -9.549021 1.618065 -9.524955 1.650153 C -9.524955 1.650153 -9.099789 2.291913 -9.528966 3.370874 C -9.593142 3.539336 -9.849846 3.226477 -9.86589 3.210433 M -10.984961 4.405713 C -10.984961 4.405713 -11.197544 4.786758 -10.844576 5.203903 C -10.491607 5.621047 -10.379299 5.677201 -10.230892 5.697256 C -10.082485 5.7133 -9.82578 5.749399 -9.82578 5.749399 C -9.82578 5.749399 -9.336438 6.098356 -8.871161 5.797531 M -8.871161 5.797531 C -8.86715 5.797531 -8.86715 5.797531 -8.86715 5.79352 M -11.474303 3.619556 C -11.474303 3.619556 -11.474303 4.024667 -11.361995 4.120931 C -11.281775 4.193129 -11.129357 4.309449 -10.976939 4.337526 C -10.916774 4.349559 -10.856609 4.345548 -10.800455 4.325493 C -10.595893 4.241262 -10.02232 3.976535 -9.873912 3.643622 C -9.781659 3.431039 -9.805725 3.298676 -9.86589 3.210433 C -9.90199 3.15829 -9.946111 3.126202 -9.990232 3.106147 C -10.098529 3.049993 -10.335178 3.005872 -10.335178 3.005872 M -12.89821 -8.846645 C -12.89821 -8.846645 -13.010518 -7.282354 -12.966397 -7.057737 M -10.728256 -1.093374 L -10.700179 -2.380906 M -12.982441 -0.640131 C -12.982441 -0.640131 -14.117555 -1.289913 -13.892939 -3.110909 M -10.098529 1.1207 C -10.094518 1.076579 -10.026331 0.659435 -10.030342 0.627347 C -10.030342 0.59927 -9.906001 0.286411 -9.990232 0.218224 C -10.082485 0.138004 -10.22287 0.0778392 -10.319134 0.0297071 C -11.049137 0.0256961 -11.446226 0.182125 -11.446226 0.182125 M -10.291057 0.0176741 C -10.307101 -0.335294 -10.134628 -0.415514 -10.106551 -0.463646 C -10.078474 -0.511778 -10.042375 -0.583977 -10.042375 -0.583977 C -10.042375 -0.583977 -9.926056 -0.600021 -9.809736 -0.551889 C -9.693417 -0.507767 -9.573087 -0.387437 -9.573087 -0.387437 C -9.388581 -0.247052 -9.536988 -0.114689 -9.492867 0.0297071 C -9.444735 0.174103 -9.581109 0.306466 -9.581109 0.306466 C -9.581109 0.306466 -9.528966 0.306466 -9.524955 0.354598 C -9.520944 0.410752 -9.66534 0.523061 -9.685395 0.531083 C -9.70545 0.543116 -9.669351 0.615314 -9.709461 0.687512 C -9.74556 0.755699 -9.781659 0.940205 -9.781659 0.940205 C -9.78567 0.964271 -9.817758 1.100645 -9.821769 1.116689 C -9.86589 1.289162 -9.994243 1.333283 -9.994243 1.333283 C -9.998254 1.433559 -10.118584 1.509768 -10.118584 1.509768 C -10.090507 1.730373 -10.30309 1.702296 -10.331167 1.79856 C -10.355233 1.894824 -10.551772 1.987077 -10.551772 1.987077 C -10.631992 2.115429 -10.864631 2.151528 -10.864631 2.151528 C -10.94084 2.171583 -11.289797 2.031198 -11.289797 2.031198 C -11.289797 2.031198 -11.418149 2.071308 -11.578589 2.003121 C -11.578589 2.003121 -11.915514 2.07933 -12.083976 1.734384 C -12.083976 1.734384 -12.256449 1.618065 -12.332658 1.465647 C -12.332658 1.465647 -12.589363 0.711578 -12.625462 0.450863 C -12.661561 0.170092 -12.641506 0.230257 -12.669583 0.154048 C -12.713704 0.0256961 -13.251178 -0.447602 -12.982441 -0.640131 C -12.713704 -0.832659 -12.633484 -0.864747 -12.585352 -0.993099 C -12.53722 -1.121451 -11.763096 -1.217715 -11.594633 -1.141506 C -11.430182 -1.065297 -11.333918 -0.5198 -11.333918 -0.5198 C -11.325896 -0.395459 -11.317874 -0.27914 -11.361995 -0.110678 C -11.378039 -0.046502 -11.398094 0.0216851 -11.426171 0.0778392 C -11.514413 0.274378 -11.546501 0.490973 -11.538479 0.59927 C -11.534468 0.707567 -11.602655 0.88004 -11.674854 0.972293 C -11.747052 1.068557 -11.855349 1.172843 -11.827272 1.36136 C -11.799195 1.5579 -11.642766 1.826637 -11.558534 1.858725 C -11.474303 1.890813 -11.26172 2.035209 -10.848587 1.938945 C -10.848587 1.938945 -10.692157 1.79856 -10.660069 1.774494 C -10.631992 1.750428 -10.507651 1.674219 -10.42342 1.602021 C -10.339189 1.525812 -10.307101 1.429548 -10.30309 1.401471 M -15.17245 -6.957462 C -15.17245 -6.957462 -14.963877 -7.222188 -14.526678 -7.202133 C -13.989203 -7.121913 -13.596125 -6.809055 -13.435685 -6.556362 C -13.215079 -6.143228 -13.050628 -5.577677 -13.692389 -4.771465 M -11.065181 -4.739377 C -11.065181 -4.739377 -11.241665 -4.687234 -11.237654 -4.63108 M -11.353973 -4.887784 L -11.446226 -4.815586 M -12.489088 -4.598992 C -12.489088 -4.598992 -12.392823 -4.795531 -12.288537 -4.919872 C -12.184251 -5.040202 -11.823261 -5.196631 -11.594633 -5.124433 C -11.498369 -5.096356 -11.470292 -5.020147 -11.414138 -5.012125 C -11.357984 -5.000092 -11.285786 -4.919872 -11.213588 -4.91185 C -11.145401 -4.903828 -11.065181 -4.739377 -11.065181 -4.739377 C -11.065181 -4.739377 -10.832543 -4.795531 -10.824521 -4.655146 C -10.812488 -4.518772 -10.808477 -4.169814 -10.808477 -4.169814 C -10.808477 -4.169814 -10.619959 -4.057506 -10.575838 -3.79278 M -13.584092 -3.283382 C -13.584092 -3.283382 -13.692389 -2.826128 -13.507883 -2.741897 C -13.507883 -2.741897 -13.49585 -2.733875 -13.479806 -2.717831 C -13.447718 -2.685743 -13.383542 -2.629589 -13.343431 -2.585468 C -13.283266 -2.517281 -13.150903 -2.35684 -13.066672 -2.348818 C -12.982441 -2.340796 -12.894199 -2.264587 -12.834034 -2.1964 C -12.773869 -2.128213 -12.593374 -1.891564 -12.316614 -1.935685 C -12.039855 -1.979806 -11.430182 -2.003872 -11.349962 -2.064037 C -11.269742 -2.124202 -10.896719 -2.384917 -10.840565 -2.384917 C -10.82051 -2.388928 -10.764356 -2.388928 -10.70419 -2.39695 C -10.595893 -2.417005 -10.459519 -2.469149 -10.407376 -2.621567 C -10.407376 -2.621567 -10.246936 -2.741897 -10.387321 -2.942447 C -10.387321 -2.942447 -10.090507 -3.110909 -10.042375 -3.255305 C -9.994243 -3.39569 -9.958144 -3.676461 -10.214848 -3.760692 C -10.214848 -3.760692 -10.519684 -3.796791 -10.575838 -3.79278 C -10.575838 -3.79278 -10.595893 -3.668439 -10.66408 -3.648384 C -10.732267 -3.63234 -10.804466 -3.628329 -10.876664 -3.680472 C -10.948862 -3.728604 -11.193533 -3.881022 -11.265731 -3.905088 C -11.337929 -3.929154 -11.46227 -3.949209 -11.478314 -3.989319 C -11.494358 -4.03344 -11.546501 -4.125693 -11.803206 -4.262067 C -11.803206 -4.262067 -12.753814 -4.478662 -12.757825 -4.478662 M -13.411619 -6.568395 C -12.705682 -6.476142 -12.569308 -5.601743 -12.553264 -5.324983 C -12.549253 -5.284873 -12.61744 -5.048224 -12.61744 -5.048224 C -12.61744 -5.048224 -12.673594 -4.779487 -12.733759 -4.546849 C -12.769858 -4.406464 -13.491839 -3.39569 -13.491839 -3.39569 M -14.522667 -7.234221 C -14.522667 -7.234221 -14.229863 -7.835872 -14.201786 -8.048455 C -14.181731 -8.176807 -14.01728 -8.702249 -13.884917 -9.119393 C -13.800686 -9.388131 -13.724477 -9.612747 -13.712444 -9.648846 C -13.680356 -9.733077 -13.503872 -9.94566 -13.568048 -10.286596 C -13.572059 -10.306651 -13.580081 -10.330717 -13.584092 -10.354783 C -13.600136 -10.410937 -13.624202 -10.467091 -13.652279 -10.531267 C -13.892939 -11.020609 -13.949093 -11.558084 -15.188494 -11.509952 L -15.489319 -11.485886 M -14.671074 -2.882282 C -14.671074 -2.882282 -13.921016 -3.07481 -13.600136 -3.299426 C -13.592114 -3.303437 -13.588103 -3.307448 -13.584092 -3.311459 C -13.543982 -3.339536 -13.511894 -3.367613 -13.491839 -3.39569 M -19.548456 -9.215658 C -19.548456 -9.215658 -19.664775 -9.319944 -19.672797 -9.460329 C -19.68483 -9.600714 -19.68483 -9.861429 -19.797138 -10.1061 C -19.909446 -10.350772 -20.138073 -10.908301 -20.114007 -11.036653 C -20.097963 -11.160995 -19.793127 -11.682425 -19.793127 -11.710502 C -19.789116 -11.738579 -19.704885 -11.82281 -19.688841 -11.826821 C -19.672797 -11.830832 -19.544445 -11.850887 -19.516368 -11.846876 C -19.492302 -11.842865 -19.400048 -11.858909 -19.36796 -11.850887 C -19.335872 -11.842865 -19.251641 -11.818799 -19.24763 -11.778689 C -19.243619 -11.738579 -19.251641 -11.678414 -19.219553 -11.666381 C -19.187465 -11.650337 -19.031036 -11.46182 -19.08719 -11.445776 C -19.143344 -11.425721 -19.239608 -11.393633 -19.291751 -11.373578 C -19.343894 -11.353523 -19.40807 -11.357534 -19.436147 -11.293358 C -19.464225 -11.229182 -19.492302 -11.189072 -19.468236 -11.124896 C -19.444169 -11.056708 -19.36796 -10.996543 -19.319828 -10.960444 C -19.267685 -10.924345 -18.682079 -10.511212 -18.589826 -10.527256 C -18.493561 -10.547311 -18.268945 -10.595443 -18.172681 -10.683685 C -18.080428 -10.771927 -17.274216 -11.449787 -17.101743 -11.525996 C -16.92927 -11.606216 -16.227344 -12.027372 -15.878386 -12.063471 C -15.53344 -12.09957 -14.919756 -12.231933 -14.659041 -12.304131 C -14.394315 -12.376329 -13.828763 -12.484626 -13.580081 -12.203856 C -13.335409 -11.919074 -13.223101 -11.899019 -13.207057 -11.722535 C -13.191013 -11.546051 -13.106782 -11.040664 -13.251178 -10.791982 C -13.399586 -10.5433 -13.539971 -10.366816 -13.539971 -10.366816 M -19.849281 -7.956202 C -19.849281 -7.956202 -20.029776 -8.722304 -19.52439 -9.187581 C -19.516368 -9.199614 -19.504335 -9.207636 -19.492302 -9.219669 C -18.950816 -9.684945 -18.481528 -10.214398 -17.843779 -10.515223 C -17.206029 -10.820059 -15.806188 -11.377589 -15.657781 -11.429732 C -15.625693 -11.437754 -15.565528 -11.46182 -15.49333 -11.489897 C -15.21256 -11.602205 -14.711184 -11.82281 -14.626953 -11.907041 M -20.08593 -7.274332 C -20.08593 -7.274332 -20.041809 -7.695487 -19.88538 -7.888015 C -19.873347 -7.904059 -19.853292 -7.924114 -19.833237 -7.944169 C -19.628676 -8.14873 -19.119278 -8.477633 -18.505594 -8.513732 C -17.827735 -8.553842 -17.109765 -8.650106 -16.708664 -8.277083 L -16.708664 -8.273072 C -16.708664 -8.273072 -16.708664 -8.273072 -16.704653 -8.273072 M -18.152626 -4.984048 C -18.152626 -4.984048 -18.092461 -5.048224 -18.000208 -5.148499 C -17.69136 -5.46938 -17.00949 -6.175316 -16.688609 -6.363834 M -16.708664 -8.277083 C -16.672565 -8.730326 -16.596356 -9.119393 -16.419872 -9.26379 C -16.419872 -9.26379 -16.203278 -9.444285 -16.179212 -9.468351 C -16.155146 -9.488406 -15.962617 -9.612747 -15.946573 -9.652857 C -15.926518 -9.696978 -15.874375 -9.841374 -15.902452 -9.869451 C -15.930529 -9.897528 -16.042838 -9.961704 -16.054871 -9.981759 C -16.066904 -10.001814 -16.103003 -10.114123 -16.026794 -10.154233 C -16.026794 -10.154233 -15.994706 -10.18231 -15.954595 -10.130167 C -15.914485 -10.082034 -15.85432 -10.06599 -15.818221 -10.057968 C -15.782122 -10.049946 -15.589594 -9.969726 -15.581572 -9.881484 C -15.577561 -9.805275 -15.57355 -9.737088 -15.57355 -9.733077 M -15.57355 -9.733077 L -15.256681 -10.398904 C -15.256681 -10.398904 -15.156406 -10.447036 -15.128329 -10.42297 C -15.104263 -10.398904 -15.064152 -10.370827 -15.080196 -10.322695 C -15.100251 -10.274563 -15.156406 -10.074012 -15.156406 -10.074012 L -15.236626 -9.793242 L -15.308824 -9.62478 L -15.373 -9.432252 M -15.373 -9.428241 L -15.373 -9.432252 L -15.052119 -9.853407 L -14.887668 -10.134178 C -14.887668 -10.134178 -14.803437 -10.226431 -14.751294 -10.206376 C -14.699151 -10.18231 -14.634975 -10.154233 -14.679096 -10.041924 C -14.723217 -9.929616 -14.819481 -9.705 -14.819481 -9.705 C -14.819481 -9.705 -14.959866 -9.428241 -15.092229 -9.327966 L -14.799426 -9.440274 L -14.402337 -9.692967 C -14.402337 -9.692967 -14.338161 -9.684945 -14.314095 -9.656868 C -14.29404 -9.628791 -14.322117 -9.572637 -14.350194 -9.540549 C -14.378271 -9.508461 -14.675085 -9.139448 -14.675085 -9.139448 C -14.675085 -9.139448 -14.807448 -9.043184 -14.871624 -9.011096 C -14.871624 -9.011096 -14.939811 -8.962964 -14.951844 -8.922854 C -14.963877 -8.886755 -15.128329 -8.734337 -15.156406 -8.70626 C -15.188494 -8.678183 -15.445198 -8.517743 -15.53344 -8.497688 C -15.617671 -8.477633 -15.850309 -8.449556 -15.834265 -8.313182 C -15.81421 -8.180818 -15.53344 -7.519003 -15.53344 -7.519003 L -15.33289 -7.105869 C -15.33289 -7.105869 -15.300802 -7.037682 -15.25267 -6.945429 C -15.156406 -6.74889 -15.007998 -6.42801 -14.999976 -6.299658 C -14.999976 -6.299658 -14.510634 -6.23147 -14.49459 -5.994821 C -14.482557 -5.762183 -14.306073 -5.409215 -15.725968 -4.891795 C -15.725968 -4.891795 -16.143113 -5.172565 -16.351685 -5.605754 C -16.455971 -5.822348 -16.564268 -6.079052 -16.640477 -6.379878 C -16.716686 -6.672681 -16.764818 -7.005594 -16.752785 -7.378618 C -16.740752 -7.671421 -16.73273 -7.98829 -16.708664 -8.273072 M -19.175432 -6.27158 C -19.175432 -6.27158 -19.632687 -5.966744 -19.700874 -5.962733 C -19.736973 -5.962733 -19.857303 -5.942678 -19.989666 -5.922623 C -20.130051 -5.902568 -20.28648 -5.886524 -20.366701 -5.894546 C -20.519119 -5.914601 -21.008461 -6.19136 -21.040549 -6.480153 C -21.072637 -6.772956 -21.301265 -7.551091 -20.575273 -7.539058 C -20.575273 -7.539058 -20.298513 -7.38664 -20.170161 -7.26631 C -20.150106 -7.250266 -20.134062 -7.234221 -20.12604 -7.218177 C -20.033787 -7.097847 -19.500324 -6.793011 -19.404059 -6.801033 C -19.347905 -6.805044 -19.107245 -6.797022 -18.902684 -6.817077 C -18.762299 -6.833121 -18.637958 -6.857187 -18.601859 -6.905319 C -18.509605 -7.021638 -18.453451 -7.414717 -18.397297 -7.462849 C -18.345154 -7.50697 -17.919988 -7.851916 -17.919988 -7.851916 M -18.00823 -5.156521 C -18.00823 -5.156521 -18.272956 -5.284873 -18.501583 -5.437292 C -18.621914 -5.513501 -18.7262 -5.593721 -18.794387 -5.66993 C -18.962849 -5.866469 -19.103234 -6.083063 -19.143344 -6.279602 C -19.147355 -6.303669 -19.151366 -6.331746 -19.155377 -6.359823 C -19.16741 -6.564384 -18.982904 -6.744879 -18.902684 -6.805044 M -16.552235 -3.628329 L -17.21004 -3.909099 C -17.21004 -3.909099 -17.891911 -4.081572 -18.056362 -4.097616 C -18.224824 -4.11366 -18.874607 -4.258056 -18.854552 -4.635091 C -18.838508 -5.012125 -18.902684 -5.148499 -18.76631 -5.252785 C -18.633947 -5.357072 -18.513616 -5.421248 -18.513616 -5.421248 M -14.418381 1.650153 C -14.418381 1.650153 -14.005247 1.357349 -13.965137 1.212953 M -15.870364 1.096634 C -15.870364 1.096634 -15.942562 0.823886 -15.862342 0.695534 C -15.862342 0.695534 -15.649759 0.0978942 -15.007998 0.0497621 C -14.947833 0.0457511 -14.358216 0.0216851 -14.358216 0.0216851 M -13.21909 2.941696 L -13.082716 2.7973 M -15.669814 4.485933 C -15.729979 4.642362 -15.565528 4.790769 -15.49333 4.83489 C -15.481297 4.838901 -15.377011 4.862967 -15.377011 4.862967 C -15.377011 4.875 -15.377011 4.879011 -15.381022 4.887033 C -15.393055 5.11566 -14.699151 5.227969 -14.699151 5.227969 C -14.679096 5.669179 -13.620191 5.480662 -13.620191 5.480662 C -13.118815 5.564893 -12.613429 5.183847 -12.613429 5.183847 C -12.22035 5.260057 -12.011778 4.786758 -12.011778 4.786758 C -11.634744 4.67445 -11.799195 4.132964 -11.811228 4.084832 C -11.81925 4.0367 -11.81925 3.948458 -12.015789 3.91637 C -12.079965 3.908348 -12.152163 3.928403 -12.228372 3.960491 C -12.384801 4.032689 -12.404856 3.99659 -12.629473 4.140986 L -12.914254 4.35357 C -12.914254 4.35357 -12.894199 4.128953 -12.990463 4.0367 C -13.086727 3.944447 -13.118815 3.948458 -13.182991 3.952469 C -13.243156 3.95648 -13.383542 3.816095 -13.471784 3.767963 C -13.560026 3.71582 -13.700411 3.567413 -13.917005 3.55538 C -13.917005 3.55538 -14.326128 3.467138 -14.438436 3.531314 C -14.554755 3.59549 -14.81547 3.479171 -14.851569 3.579446 C -14.875635 3.639611 -14.943822 3.735875 -15.064152 3.816095 M -15.208549 2.580706 L -14.197775 2.841421 L -14.141621 2.813344 L -13.744532 2.59675 C -13.744532 2.59675 -13.479806 2.456365 -13.387553 2.468398 C -13.291288 2.484442 -13.287277 2.536585 -13.287277 2.580706 C -13.283266 2.620816 -13.215079 2.689003 -13.187002 2.697025 C -13.154914 2.705047 -13.082716 2.7973 -13.082716 2.7973 C -13.082716 2.7973 -12.958375 2.801311 -12.914254 2.829388 C -12.874144 2.853454 -12.809968 2.929663 -12.805957 2.937685 M -12.805957 2.937685 C -12.805957 2.937685 -12.649528 2.761201 -12.601396 2.985817 C -12.557275 3.214444 -12.352713 3.691754 -12.316614 3.79604 C -12.276504 3.896315 -12.236394 3.940436 -12.236394 3.940436 M -14.149643 2.7973 C -14.149643 2.7973 -14.101511 2.424277 -14.310084 2.175594 C -14.342172 2.131473 -14.386293 2.095374 -14.434425 2.063286 L -14.783382 1.834659 M -16.427894 0.835919 L -15.481297 1.309217 C -15.481297 1.309217 -14.859591 1.525812 -14.518656 1.67823 C -14.394315 1.734384 -14.310084 1.778505 -14.302062 1.802571 C -14.277996 1.898835 -14.282007 2.15955 -14.282007 2.15955 M -17.703393 2.071308 C -18.044329 1.946967 -18.397297 2.299935 -18.7262 2.71708 C -19.059113 3.134224 -18.80642 3.495215 -18.337132 4.008623 C -17.919988 4.465878 -16.65251 4.59423 -16.37174 4.618296 M -17.875867 0.59927 L -18.48955 0.803831 C -18.589826 0.831908 -19.183454 1.072568 -19.307795 1.08059 C -19.432136 1.088612 -19.736973 1.208942 -19.877358 1.301195 C -20.017743 1.393449 -20.306535 1.830648 -20.298513 1.934934 C -20.294502 2.019165 -20.254392 2.492464 -20.190216 2.841421 C -20.178183 2.921641 -20.162139 2.993839 -20.150106 3.054004 C -20.065875 3.382907 -19.789116 3.491204 -19.592577 3.603512 C -19.400048 3.719831 -19.187465 4.144997 -18.970871 4.277361 C -18.750266 4.409724 -18.180703 4.522032 -17.735482 4.622307 C -17.294271 4.718571 -16.443938 4.626318 -16.443938 4.626318 C -16.443938 4.626318 -16.415861 4.630329 -16.37174 4.626318 C -16.243388 4.622307 -15.962617 4.598241 -15.681847 4.457856 C -15.605638 4.421757 -15.529429 4.373625 -15.457231 4.317471 C -15.300802 4.19714 -15.188494 4.052744 -15.112285 3.900326 C -14.979921 3.627578 -14.971899 3.322742 -15.052119 3.062026 C -15.104263 2.893564 -15.188494 2.741146 -15.276736 2.612794 C -15.409099 2.420266 -15.557506 2.283891 -15.645748 2.23977 C -15.794155 2.167572 -15.942562 2.131473 -16.018772 1.906857 C -16.094981 1.682241 -16.2113 1.168832 -16.45196 0.952238 C -16.45196 0.952238 -16.49207 0.940205 -16.468004 0.835919 C -16.459982 0.807842 -16.447949 0.767732 -16.423883 0.7196 C -16.335641 0.507017 -16.034816 -0.074579 -16.038827 -0.515789 C -16.046849 -0.952989 -15.966628 -1.374144 -15.862342 -1.71508 C -15.754045 -2.056015 -15.549484 -2.465138 -15.469264 -2.469149 C -15.385033 -2.47316 -15.220582 -2.525303 -15.160417 -2.59349 C -15.104263 -2.661677 -14.879646 -2.757941 -14.819481 -2.782007 C -14.779371 -2.79404 -14.691129 -2.83415 -14.675085 -2.882282 C -14.663052 -2.910359 -14.683107 -2.942447 -14.767338 -2.970524 C -14.979921 -3.042722 -15.164428 -2.990579 -15.164428 -2.990579 C -15.164428 -2.990579 -15.276736 -2.926403 -15.312835 -2.930414 C -15.348934 -2.930414 -15.397066 -2.982557 -15.433165 -2.998601 C -15.461242 -3.018656 -15.585583 -3.050744 -15.633715 -3.110909 C -15.633715 -3.11492 -15.633715 -3.11492 -15.633715 -3.11492 C -15.637726 -3.118931 -15.641737 -3.122942 -15.641737 -3.126953 M -15.633715 -3.110909 L -15.633715 -3.110909 M -15.633715 -3.11492 C -15.641737 -3.138986 -15.69388 -3.27536 -15.705913 -3.323492 C -15.721957 -3.375635 -15.750034 -3.548109 -15.758056 -3.620307 C -15.762067 -3.696516 -15.754045 -3.79278 -15.810199 -3.816846 C -15.810199 -3.816846 -15.942562 -3.91311 -16.014761 -3.921132 C -16.086959 -3.925143 -16.215311 -3.941187 -16.283498 -3.885033 C -16.351685 -3.828879 -16.431905 -3.728604 -16.500092 -3.67245 C -16.516136 -3.660417 -16.53218 -3.644373 -16.544213 -3.624318 C -16.604378 -3.548109 -16.656521 -3.415746 -16.632455 -3.23525 C -16.596356 -3.006623 -16.459982 -2.830139 -16.455971 -2.777996 C -16.455971 -2.725853 -16.708664 -2.060026 -16.708664 -2.060026 C -16.708664 -2.060026 -17.093721 -1.538596 -17.157897 -1.406232 C -17.206029 -1.313979 -17.426634 -1.073319 -17.575041 -0.511778 C -17.623173 -0.323261 -17.667294 -0.094634 -17.69136 0.178114 C -17.69136 0.178114 -17.743504 0.338554 -17.731471 0.631358 C -17.72746 0.695534 -17.723449 0.763721 -17.711415 0.83993 C -17.655261 1.265096 -17.675316 1.818615 -17.667294 1.922901 C -17.667294 1.946967 -17.663283 1.99911 -17.655261 2.067297 C -17.627184 2.271858 -17.57103 2.63686 -17.474766 2.881531 C -17.350425 3.210433 -16.877127 4.004612 -16.877127 4.004612 M -17.76757 0.631358 C -17.76757 0.631358 -17.799658 0.611303 -17.851801 0.571193 C -17.992186 0.470918 -18.284989 0.262345 -18.597848 0.0577841 C -19.031036 -0.231008 -19.404059 0.166081 -19.624665 0.326521 C -19.84527 0.486962 -20.314557 0.326521 -20.735713 0.266356 C -20.980384 0.234268 -21.192967 0.382675 -21.349397 0.531083 C -21.457694 0.635369 -21.541925 0.739655 -21.582035 0.779765 C -21.68231 0.868007 -21.758519 1.269107 -21.650222 1.365371 C -21.541925 1.465647 -21.225056 1.842681 -21.225056 1.842681 C -20.731702 2.733124 -20.226315 2.849443 -20.226315 2.849443 M -21.345386 0.535094 C -21.345386 0.535094 -21.345386 0.531083 -21.349397 0.531083 C -21.385496 0.503006 -21.630167 0.266356 -21.245111 -0.323261 M -19.720929 -0.632109 C -19.720929 -0.632109 -20.146095 -1.073319 -20.146095 -1.771234 C -20.146095 -2.469149 -19.949556 -3.507999 -19.953567 -3.748659 C -19.953567 -3.893055 -20.013732 -4.258056 -20.089941 -4.615036 C -20.138073 -4.835641 -20.258403 -5.328995 -20.04582 -5.858447 M -20.575273 -0.535844 C -20.575273 -0.535844 -21.205001 -0.969033 -21.192967 -2.015905 C -21.184945 -2.986568 -21.040549 -4.322232 -21.44165 -5.048224 C -21.473738 -5.100367 -21.505826 -5.15251 -21.541925 -5.204653 C -21.541925 -5.204653 -21.850772 -5.569655 -21.590057 -5.585699 C -21.329342 -5.601743 -21.176923 -5.577677 -21.048571 -5.722073 C -20.996428 -5.782238 -20.936263 -5.842403 -20.876098 -5.874491 C -20.876098 -5.874491 -20.611372 -5.934656 -20.322579 -5.890535 " transform="matrix(0.973883,0,0,-0.973883,27.9051,14.6969)"/>
<path style="fill:none;stroke-width:0.128;stroke-linecap:round;stroke-linejoin:round;stroke:rgb(13.729858%,12.159729%,12.548828%);stroke-opacity:1;stroke-miterlimit:4;" d="M 0.00139262 0.000397892 C 0.00139262 0.000397892 -0.632346 -0.504989 0.31024 -0.78977 " transform="matrix(0.973883,0,0,-0.973883,22.8463,22.4457)"/>
<path style="fill:none;stroke-width:0.141;stroke-linecap:round;stroke-linejoin:round;stroke:rgb(13.729858%,12.159729%,12.548828%);stroke-opacity:1;stroke-miterlimit:4;" d="M -0.000179693 -0.00130277 C -0.000179693 -0.00130277 0.164271 -0.875702 -0.000179693 -1.838343 C -0.164631 -2.804995 0.184327 -5.672863 0.112128 -6.242425 " transform="matrix(0.973883,0,0,-0.973883,27.8283,16.7292)"/>
<path style="fill:none;stroke-width:0.141;stroke-linecap:round;stroke-linejoin:round;stroke:rgb(13.729858%,12.159729%,12.548828%);stroke-opacity:1;stroke-miterlimit:4;" d="M 0.000770113 0.00159798 L 0.538245 0.539073 " transform="matrix(0.973883,0,0,-0.973883,25.843,14.2789)"/>
<path style="fill:none;stroke-width:0.141;stroke-linecap:round;stroke-linejoin:round;stroke:rgb(13.729858%,12.159729%,12.548828%);stroke-opacity:1;stroke-miterlimit:4;" d="M 0.00116159 0.000853542 C 0.00116159 0.000853542 -0.0269154 -0.428324 0.0452826 -1.042008 M 1.585508 -4.114437 C 2.319522 -4.940704 3.129745 -5.779004 3.129745 -5.779004 M -0.869226 1.38465 L 0.366163 1.444815 C 0.366163 1.444815 0.638911 1.476903 0.811385 1.5852 M -1.053733 1.90207 C -1.053733 1.90207 -1.129942 1.448826 -1.234228 1.168056 M -5.882982 4.272573 C -5.678421 4.372848 -5.646333 4.505211 -5.646333 4.505211 C -5.646333 4.505211 -5.943147 4.713783 -6.11562 4.785982 C -6.292105 4.85818 -6.11562 4.998565 -6.11562 4.998565 M -1.045711 3.711032 C -1.045711 3.711032 -0.151257 3.891528 -0.111147 2.932898 M -11.281794 -1.583493 C -11.281794 -1.583493 -11.001024 -1.238547 -10.351241 -1.238547 C -10.351241 -1.238547 -10.070471 -1.226514 -9.849866 -1.226514 M -8.273541 -2.706574 C -8.345739 -2.96729 -8.345739 -3.272126 -8.5503 -3.813611 C -8.5503 -3.813611 -8.658597 -4.098393 -8.778927 -4.347075 C -8.86717 -4.655922 -9.58915 -5.281639 -9.58915 -5.281639 M -7.010074 2.271082 C -7.010074 2.271082 -5.895015 2.018389 -5.650344 2.816578 M -12.894218 2.134708 C -12.894218 2.134708 -12.954383 1.62531 -12.805976 0.903329 C -12.653558 0.181349 -12.444986 -0.476456 -12.444986 -0.476456 M -9.524974 -0.604808 C -9.524974 -0.604808 -8.377827 -1.054041 -8.201343 -1.599537 M -5.341497 -0.0673335 C -5.341497 -0.0673335 -4.852154 1.444815 -4.543307 1.565145 " transform="matrix(0.973883,0,0,-0.973883,23.5809,17.9188)"/>
<path style="fill:none;stroke-width:0.141;stroke-linecap:round;stroke-linejoin:round;stroke:rgb(13.729858%,12.159729%,12.548828%);stroke-opacity:1;stroke-miterlimit:4;" d="M -0.00157873 -0.00177126 L -0.12592 -0.106057 " transform="matrix(0.973883,0,0,-0.973883,15.7281,19.3264)"/>
</g>
</svg>
